<?xml version="1.0" standalone="no"?>
<!DOCTYPE svg PUBLIC "-//W3C//DTD SVG 20010904//EN"
 "http://www.w3.org/TR/2001/REC-SVG-20010904/DTD/svg10.dtd">
<svg version="1.0" xmlns="http://www.w3.org/2000/svg"
 width="1280.000000pt" height="1280.000000pt" viewBox="0 0 1280.000000 1280.000000"
 preserveAspectRatio="xMidYMid meet">
<g transform="translate(0.000000,1280.000000) scale(0.100000,-0.100000)"
fill="#000000" stroke="none">
<path d="M6324 9201 c-61 -37 -64 -49 -64 -228 0 -99 -4 -164 -10 -168 -6 -4
-38 16 -73 43 -76 60 -97 68 -136 48 -47 -25 -71 -63 -71 -114 0 -46 1 -47
145 -193 l146 -146 -3 -93 c-2 -55 -7 -95 -14 -97 -6 -2 -70 42 -143 97 -121
91 -136 100 -176 100 -62 0 -95 -30 -102 -93 -6 -47 -5 -48 53 -105 33 -32
132 -124 222 -205 l162 -148 0 -70 c0 -51 -4 -71 -14 -75 -8 -3 -106 56 -225
135 -144 97 -219 141 -238 141 -50 0 -89 -33 -112 -94 -17 -46 -68 -281 -95
-438 -9 -51 -26 -49 -87 10 l-50 47 21 280 c12 154 19 293 16 310 -11 51 -42
75 -101 75 -29 0 -60 -6 -72 -15 -36 -25 -64 -138 -78 -317 -5 -52 -11 -78
-19 -78 -7 0 -45 30 -85 68 l-73 67 11 59 c13 71 14 295 1 350 -12 54 -31 69
-94 74 -53 4 -57 3 -90 -30 -29 -29 -36 -45 -47 -111 -7 -42 -18 -77 -24 -77
-6 0 -64 50 -129 110 l-117 110 -62 0 c-73 0 -98 -14 -127 -70 -38 -74 -29
-94 110 -248 99 -110 102 -122 32 -122 -85 0 -142 -54 -142 -132 0 -42 5 -54
31 -80 l30 -31 117 7 c64 3 151 9 192 12 l75 6 83 -77 c77 -72 99 -105 69
-105 -36 0 -190 -23 -242 -36 -81 -21 -105 -45 -105 -104 0 -36 7 -56 30 -88
37 -51 24 -50 305 -17 281 33 265 34 317 -21 24 -25 43 -51 43 -57 0 -13 -7
-15 -225 -57 -231 -45 -302 -88 -286 -173 3 -18 74 -131 156 -252 83 -121 150
-225 150 -232 0 -9 -21 -13 -78 -13 l-77 0 -204 235 c-125 144 -213 238 -228
241 -39 10 -91 -5 -113 -33 -15 -19 -20 -40 -20 -82 l0 -56 110 -135 c60 -74
109 -143 110 -152 0 -16 -11 -18 -97 -18 l-97 0 -156 160 c-100 102 -165 161
-183 166 -40 9 -76 -3 -114 -41 -52 -52 -47 -84 32 -180 36 -44 65 -86 65 -92
0 -10 -45 -13 -190 -13 -207 0 -229 -5 -269 -56 -43 -54 -19 -183 39 -214 10
-6 88 -10 172 -10 84 0 160 -4 168 -10 12 -7 9 -17 -19 -55 -31 -43 -33 -51
-29 -107 5 -74 28 -98 91 -98 39 0 47 6 177 135 l137 135 99 0 c121 0 138 -8
107 -47 -58 -73 -153 -220 -153 -236 0 -49 51 -105 101 -113 51 -8 84 19 221
178 193 224 186 218 249 218 61 0 85 -11 74 -31 -4 -8 -58 -92 -118 -188 -127
-199 -134 -223 -79 -272 47 -42 140 -67 486 -131 38 -7 71 -18 73 -23 2 -6
-18 -34 -44 -64 l-47 -53 -90 6 c-50 4 -184 14 -298 22 -114 9 -219 13 -233
10 -46 -12 -65 -41 -65 -101 0 -64 18 -86 89 -109 44 -15 169 -38 279 -51 30
-4 52 -12 52 -19 0 -7 -28 -43 -63 -81 l-63 -68 -77 11 c-96 15 -309 15 -359
2 -47 -14 -68 -43 -68 -98 0 -90 45 -127 169 -138 39 -4 71 -11 71 -16 0 -5
-50 -61 -112 -126 -133 -140 -188 -211 -188 -242 0 -25 51 -120 75 -140 9 -8
32 -11 59 -8 60 7 140 63 249 172 49 50 92 85 96 80 5 -5 16 -34 25 -65 31
-109 101 -139 185 -78 l42 30 -7 183 -7 182 81 84 c90 93 102 95 102 12 0 -55
27 -188 46 -224 18 -35 43 -48 94 -48 53 0 98 24 106 56 8 32 -2 224 -20 384
-12 107 -12 117 5 145 27 45 88 101 98 89 5 -5 16 -56 26 -114 24 -145 60
-285 85 -325 23 -38 76 -61 116 -51 14 4 114 67 222 142 108 74 203 133 212
132 12 -3 16 -20 18 -81 3 -88 12 -73 -108 -168 -86 -67 -286 -245 -310 -277
-36 -45 -19 -117 36 -161 47 -37 68 -28 217 85 80 60 145 103 153 100 11 -4
14 -27 14 -92 l0 -87 -145 -147 -145 -146 0 -61 c0 -73 18 -101 72 -110 54 -8
80 2 137 53 80 72 81 70 81 -172 0 -192 1 -209 21 -240 28 -45 47 -54 116 -54
63 0 107 21 129 62 10 16 13 79 14 220 0 120 4 199 10 203 6 3 36 -10 68 -29
68 -42 121 -53 163 -36 35 15 49 44 49 103 0 40 -4 45 -145 182 l-146 140 3
109 c2 64 7 111 13 113 6 2 69 -42 140 -97 142 -109 163 -116 223 -80 37 23
66 81 58 115 -3 12 -88 96 -188 187 -101 91 -198 179 -215 196 -30 27 -33 35
-33 90 0 34 5 64 11 68 6 3 30 -7 53 -24 157 -113 344 -233 372 -238 95 -18
139 70 193 385 11 62 24 118 30 124 13 13 97 -58 106 -91 4 -12 -5 -125 -19
-250 -35 -299 -35 -285 16 -322 32 -23 52 -30 89 -30 77 0 97 37 125 235 9 61
19 114 24 119 8 7 144 -110 163 -141 4 -7 3 -88 -3 -180 -13 -193 -9 -235 27
-263 36 -28 111 -27 148 2 32 25 55 74 55 120 0 72 12 68 132 -43 210 -196
244 -211 329 -147 55 43 63 58 55 101 -10 51 -69 135 -190 269 -58 64 -106
119 -106 122 0 3 11 6 25 6 54 0 128 23 157 49 24 22 31 37 35 77 9 112 -21
124 -296 122 l-205 -2 -58 64 c-32 36 -58 69 -58 75 0 7 51 16 128 23 219 20
282 51 282 137 0 59 -23 103 -58 112 -15 3 -153 -3 -307 -14 -154 -11 -285
-18 -292 -14 -6 3 -35 28 -63 54 -34 31 -49 52 -43 58 5 5 70 21 144 34 174
33 332 71 368 89 36 19 41 33 41 107 0 60 0 60 -110 219 -60 88 -110 164 -110
169 0 15 28 21 92 21 49 0 63 -4 78 -22 11 -13 61 -75 112 -138 51 -63 120
-144 154 -179 l63 -64 47 6 c67 7 94 39 94 112 0 52 -3 57 -73 147 -40 52 -77
100 -81 107 -15 23 15 31 122 31 l104 0 26 -32 c15 -18 72 -79 126 -135 91
-94 103 -103 136 -103 56 0 110 51 117 110 4 40 1 50 -32 94 -30 38 -35 50
-24 57 8 5 88 9 179 9 146 0 168 2 194 19 41 27 55 57 56 117 0 57 -28 110
-70 131 -18 9 -87 13 -232 13 -120 0 -209 4 -213 10 -3 5 17 34 44 64 78 86
84 99 79 158 -7 68 -39 98 -105 98 -44 0 -49 -3 -135 -87 -50 -49 -119 -123
-156 -165 l-65 -78 -98 0 c-55 0 -101 4 -104 10 -3 6 20 43 53 83 183 224 216
331 117 373 -81 33 -107 14 -317 -235 -208 -247 -189 -231 -274 -231 -40 0
-75 4 -79 10 -3 5 40 74 95 154 156 224 210 315 210 351 0 53 -56 96 -170 128
-48 14 -297 67 -314 67 -16 0 -3 25 37 71 50 59 33 57 307 24 276 -34 263 -34
300 19 34 50 40 107 15 143 -19 28 -86 49 -210 68 -55 8 -103 15 -107 15 -21
0 0 32 66 103 l74 77 119 -7 c208 -14 235 -12 276 20 87 66 43 174 -78 193
-74 11 -72 20 21 122 151 166 162 188 124 262 -29 56 -54 70 -127 70 l-63 0
-130 -122 c-72 -68 -137 -124 -145 -126 -16 -4 -18 5 -36 116 -15 96 -43 132
-103 132 -44 0 -107 -34 -126 -69 -6 -13 -6 -52 0 -118 5 -54 10 -148 10 -210
l0 -112 -62 -71 c-36 -41 -68 -70 -77 -68 -13 3 -18 28 -27 123 -15 158 -32
239 -58 278 -19 27 -29 32 -69 35 -39 3 -54 -2 -93 -29 l-47 -32 6 -61 c4 -33
16 -149 27 -258 31 -311 33 -290 -33 -356 -31 -31 -59 -53 -63 -50 -3 4 -19
73 -34 155 -35 187 -76 345 -100 393 -44 87 -97 70 -387 -124 -72 -48 -136
-85 -142 -81 -6 3 -11 33 -11 65 l0 59 197 173 c219 192 248 225 239 277 -8
53 -36 74 -104 79 l-58 4 -123 -92 c-70 -52 -129 -89 -137 -86 -11 4 -14 29
-14 107 l0 102 145 147 c143 146 145 148 145 192 0 57 -28 95 -75 104 -50 9
-73 1 -139 -51 -32 -24 -62 -42 -67 -39 -5 3 -9 73 -9 155 0 163 -7 189 -56
228 -35 28 -116 29 -160 2z m-335 -1573 c150 -101 250 -177 262 -199 5 -11 9
-45 7 -76 l-3 -57 -170 -97 c-93 -54 -174 -98 -180 -98 -5 -1 -36 29 -69 65
l-59 66 7 66 c7 68 49 295 67 365 5 20 15 37 21 37 5 0 58 -32 117 -72z m943
-14 c9 -43 29 -151 44 -240 l28 -160 -39 -47 c-22 -26 -45 -47 -53 -47 -21 0
-311 150 -344 178 -25 21 -28 30 -28 87 0 62 1 64 43 100 62 54 308 216 321
212 6 -2 19 -39 28 -83z m-479 -578 c12 -8 139 -78 282 -156 143 -78 262 -143
264 -146 2 -2 4 -155 3 -341 l0 -338 -26 -20 c-39 -31 -532 -315 -548 -315
-51 0 -586 308 -588 338 -1 4 -1 155 -2 337 l0 329 22 16 c83 57 529 309 548
309 12 1 33 -5 45 -13z m-860 -32 c26 -20 47 -42 47 -50 0 -7 -19 -28 -42 -48
l-43 -35 -5 -163 -5 -163 -71 -3 -71 -3 -69 108 c-37 59 -99 155 -137 212 -43
65 -65 107 -59 113 10 10 316 65 373 67 27 1 47 -8 82 -35z m1852 6 c102 -16
188 -30 190 -30 21 0 -11 -60 -104 -196 -145 -210 -176 -246 -210 -242 l-26 3
-6 140 c-6 158 -17 192 -73 245 -20 19 -36 37 -36 41 0 12 57 69 69 69 6 0 94
-13 196 -30z m-1911 -756 c14 -5 16 -30 16 -171 0 -150 2 -169 21 -199 17 -29
18 -35 6 -40 -14 -5 -334 47 -410 67 -23 6 -37 15 -34 22 10 25 199 303 215
315 16 12 157 17 186 6z m1909 -36 c47 -51 170 -222 188 -261 7 -15 10 -30 7
-33 -15 -15 -346 -77 -385 -72 l-25 3 31 39 31 39 0 158 c0 116 3 159 13 162
6 3 32 6 56 6 39 1 48 -3 84 -41z m-1376 -639 c92 -50 175 -97 183 -105 20
-19 19 -20 -195 -162 -121 -81 -184 -117 -191 -111 -7 5 -15 31 -19 57 -3 26
-20 108 -36 182 l-30 135 51 48 c28 26 55 47 60 47 5 0 84 -41 177 -91z m890
59 c13 -12 23 -33 23 -48 0 -45 -58 -382 -68 -392 -5 -5 -79 37 -178 101 -193
126 -196 129 -191 144 2 7 55 41 118 77 63 36 141 82 174 102 70 43 90 46 122
16z"/>
<path d="M6323 6978 c-228 -119 -390 -223 -437 -279 l-27 -32 3 -289 3 -290
49 -45 c79 -71 450 -283 496 -283 31 0 374 177 466 241 106 74 104 65 104 391
0 230 -2 277 -15 296 -31 43 -187 143 -409 261 -143 77 -142 77 -233 29z"/>
</g>
</svg>
